<svg width="1440" height="2924" viewBox="0 0 1440 2924" fill="none" xmlns="http://www.w3.org/2000/svg">
<path d="M979 1022.47L979 1020.09C979 945.228 918.156 884.559 843.077 884.559L546.14 884.559C484.17 884.559 429.682 870.695 382.808 842.968C335.933 815.241 299.321 778.007 273.103 731.202C246.885 684.462 233.776 634.091 233.776 580.221C233.776 524.767 246.885 473.604 273.103 426.798C299.321 380.058 335.933 342.363 382.808 313.844C429.682 285.324 484.17 271.065 546.14 271.065L843.011 271.065C918.09 271.065 978.934 210.395 978.934 135.532C978.934 60.6693 918.09 -7.16675e-05 843.011 -6.83857e-05L543.756 -5.53049e-05C438.819 -5.07179e-05 345.401 23.766 263.503 71.3641C181.605 118.896 117.252 185.903 70.3116 272.319C23.5034 358.603 -3.04901e-05 460.467 -2.53652e-05 577.713C-2.02344e-05 695.09 23.5034 797.35 70.3778 884.493C117.318 971.701 181.671 1039.1 263.569 1086.64C345.467 1134.23 438.819 1158 543.756 1158L843.011 1158C918.156 1158 979 1097.33 979 1022.47Z" fill="url(#paint0_linear)"/>
<path d="M979 2788.47L979 2786.09C979 2711.23 918.156 2650.56 843.078 2650.56L546.14 2650.56C484.17 2650.56 429.682 2636.7 382.808 2608.97C335.933 2581.24 299.321 2544.01 273.103 2497.2C246.885 2450.46 233.776 2400.09 233.776 2346.22C233.776 2290.77 246.885 2239.6 273.103 2192.8C299.321 2146.06 335.933 2108.36 382.808 2079.84C429.682 2051.32 484.17 2037.06 546.14 2037.06L843.011 2037.06C918.09 2037.06 978.934 1976.4 978.934 1901.53C978.934 1826.67 918.09 1766 843.011 1766L543.756 1766C438.819 1766 345.401 1789.77 263.503 1837.36C181.605 1884.9 117.252 1951.9 70.3116 2038.32C23.5034 2124.6 -3.04901e-05 2226.47 -2.53652e-05 2343.71C-2.02344e-05 2461.09 23.5034 2563.35 70.3778 2650.49C117.318 2737.7 181.671 2805.1 263.569 2852.64C345.467 2900.23 438.819 2924 543.756 2924L843.011 2924C918.156 2924 979 2863.33 979 2788.47Z" fill="url(#paint1_linear)"/>
<path d="M467 1019.6L467 1021.96C467 1096.3 527.471 1156.55 602.09 1156.55L897.207 1156.55C958.797 1156.55 1012.95 1170.32 1059.54 1197.86C1106.13 1225.39 1142.51 1262.37 1168.57 1308.85C1194.63 1355.27 1207.66 1405.29 1207.66 1458.79C1207.66 1513.86 1194.63 1564.67 1168.57 1611.15C1142.51 1657.57 1106.13 1695 1059.54 1723.32C1012.95 1751.65 958.797 1765.81 897.207 1765.81L602.155 1765.81C527.537 1765.81 467.066 1826.06 467.066 1900.4C467.066 1974.75 527.537 2035 602.155 2035L899.576 2035C1003.87 2035 1096.72 2011.4 1178.11 1964.13C1259.51 1916.93 1323.47 1850.38 1370.12 1764.56C1416.64 1678.87 1440 1577.71 1440 1461.28C1440 1344.71 1416.64 1243.16 1370.05 1156.62C1323.4 1070.01 1259.44 1003.07 1178.05 955.871C1096.65 908.602 1003.87 885 899.576 885L602.155 885C527.471 885 467 945.25 467 1019.6Z" fill="white"/>
<defs>
<linearGradient id="paint0_linear" x1="330" y1="1158" x2="330" y2="374" gradientUnits="userSpaceOnUse">
<stop offset="0.833333" stop-color="white"/>
<stop offset="1" stop-color="white" stop-opacity="0"/>
</linearGradient>
<linearGradient id="paint1_linear" x1="490" y1="1766" x2="490" y2="2709.5" gradientUnits="userSpaceOnUse">
<stop offset="0.510417" stop-color="white"/>
<stop offset="1" stop-color="white" stop-opacity="0"/>
</linearGradient>
</defs>
</svg>
