<svg width="174" height="147" viewBox="0 0 174 147" fill="none" xmlns="http://www.w3.org/2000/svg">
<path opacity="0.3" d="M20.365 147H20.7221C31.9709 147 41.0871 137.864 41.0871 126.591L41.0871 82.0047C41.0871 72.6997 43.1702 64.5182 47.3364 57.4798C51.5027 50.4415 57.0973 44.944 64.1303 41.0073C71.1534 37.0706 78.7221 35.1023 86.8165 35.1023C95.149 35.1023 102.837 37.0706 109.87 41.0073C116.893 44.944 122.557 50.4415 126.842 57.4798C131.127 64.5182 133.27 72.6997 133.27 82.0047L133.27 126.581C133.27 137.854 142.386 146.99 153.635 146.99C164.884 146.99 174 137.854 174 126.581L174 81.6468C174 65.89 170.429 51.8631 163.277 39.5658C156.135 27.2686 146.066 17.6058 133.082 10.5575C120.117 3.52911 104.811 0 87.1934 0C69.5564 0 54.1909 3.52911 41.097 10.5675C27.9932 17.6157 17.8652 27.2786 10.7231 39.5758C3.57106 51.873 0 65.89 0 81.6468L0 126.581C0 137.864 9.11613 147 20.365 147Z" fill="url(#paint0_linear)"/>
<defs>
<linearGradient id="paint0_linear" x1="87" y1="0" x2="87" y2="147" gradientUnits="userSpaceOnUse">
<stop stop-color="#B2CEFD"/>
<stop offset="0.255208" stop-color="#D8BBC0"/>
<stop offset="0.5" stop-color="#9E7593"/>
<stop offset="0.755208"/>
</linearGradient>
</defs>
</svg>
