<svg width="17" height="17" viewBox="0 0 17 17" fill="none" xmlns="http://www.w3.org/2000/svg">
<path d="M13.0592 10.6625C13.0494 10.7439 13.0099 10.8189 12.9483 10.8731C12.8867 10.9273 12.8073 10.957 12.7252 10.9564H11.3558C11.2672 10.9564 11.1823 10.9916 11.1197 11.0542C11.057 11.1168 11.0218 11.2018 11.0218 11.2904V16.6343C11.0218 16.7229 11.057 16.8078 11.1197 16.8705C11.1823 16.9331 11.2672 16.9683 11.3558 16.9683H15.3638C15.5409 16.9683 15.7108 16.8979 15.8361 16.7726C15.9614 16.6474 16.0318 16.4775 16.0318 16.3003V1.60451C16.0318 1.42735 15.9614 1.25745 15.8361 1.13217C15.7108 1.0069 15.5409 0.936523 15.3638 0.936523H0.66799C0.490828 0.936523 0.320922 1.0069 0.19565 1.13217C0.0703773 1.25745 0 1.42735 0 1.60451L0 16.3003C0 16.4775 0.0703773 16.6474 0.19565 16.7726C0.320922 16.8979 0.490828 16.9683 0.66799 16.9683H8.01588C8.10446 16.9683 8.18941 16.9331 8.25205 16.8705C8.31469 16.8078 8.34988 16.7229 8.34988 16.6343V11.2904C8.34988 11.2018 8.31469 11.1168 8.25205 11.0542C8.18941 10.9916 8.10446 10.9564 8.01588 10.9564H6.6799C6.59132 10.9564 6.50637 10.9212 6.44373 10.8585C6.38109 10.7959 6.34591 10.711 6.34591 10.6224V8.61841C6.34591 8.52983 6.38109 8.44487 6.44373 8.38224C6.50637 8.3196 6.59132 8.28441 6.6799 8.28441H8.01588C8.10446 8.28441 8.18941 8.24923 8.25205 8.18659C8.31469 8.12395 8.34988 8.039 8.34988 7.95042V7.07535C8.34988 6.0673 8.75032 5.10054 9.46312 4.38774C10.1759 3.67494 11.1427 3.27449 12.1507 3.27449H13.0258C13.1144 3.27449 13.1993 3.30968 13.262 3.37231C13.3246 3.43495 13.3598 3.5199 13.3598 3.60848V5.61245C13.3598 5.70103 13.3246 5.78599 13.262 5.84862C13.1993 5.91126 13.1144 5.94645 13.0258 5.94645H12.1507C11.8513 5.94645 11.5642 6.06539 11.3525 6.2771C11.1408 6.48881 11.0218 6.77595 11.0218 7.07535V7.95042C11.0218 8.039 11.057 8.12395 11.1197 8.18659C11.1823 8.24923 11.2672 8.28441 11.3558 8.28441H12.979C13.0265 8.28407 13.0735 8.29384 13.1168 8.31307C13.1602 8.33231 13.199 8.36056 13.2306 8.39595C13.2622 8.43135 13.2859 8.47307 13.3001 8.51834C13.3143 8.56361 13.3187 8.61138 13.313 8.65849L13.0592 10.6625Z" fill="white"/>
</svg>
