<svg width="17" height="17" viewBox="0 0 17 17" fill="none" xmlns="http://www.w3.org/2000/svg">
<path d="M11.7055 0.936523H4.35756C3.20655 0.93829 2.10319 1.39631 1.2893 2.2102C0.475412 3.02409 0.0173917 4.12745 0.015625 5.27846L0.015625 12.6263C0.0173917 13.7774 0.475412 14.8807 1.2893 15.6946C2.10319 16.5085 3.20655 16.9665 4.35756 16.9683H11.7055C12.8565 16.9665 13.9598 16.5085 14.7737 15.6946C15.5876 14.8807 16.0456 13.7774 16.0474 12.6263V5.27846C16.0456 4.12745 15.5876 3.02409 14.7737 2.2102C13.9598 1.39631 12.8565 0.93829 11.7055 0.936523V0.936523ZM8.03151 12.6263C7.30487 12.6263 6.59455 12.4109 5.99037 12.0072C5.38619 11.6035 4.91529 11.0297 4.63722 10.3584C4.35915 9.68704 4.28639 8.94833 4.42815 8.23565C4.56991 7.52298 4.91982 6.86834 5.43363 6.35453C5.94744 5.84072 6.60208 5.49081 7.31475 5.34905C8.02743 5.20729 8.76614 5.28005 9.43746 5.55812C10.1088 5.83619 10.6826 6.30709 11.0863 6.91127C11.49 7.51545 11.7055 8.22577 11.7055 8.9524C11.7055 9.9268 11.3184 10.8613 10.6294 11.5503C9.94038 12.2393 9.0059 12.6263 8.03151 12.6263ZM12.3734 5.27846C12.1753 5.27846 11.9815 5.21969 11.8168 5.10959C11.652 4.99949 11.5236 4.84301 11.4477 4.65992C11.3719 4.47683 11.352 4.27536 11.3907 4.081C11.4294 3.88663 11.5248 3.70809 11.6649 3.56796C11.8051 3.42783 11.9836 3.3324 12.178 3.29374C12.3723 3.25508 12.5738 3.27492 12.7569 3.35076C12.94 3.4266 13.0965 3.55502 13.2066 3.7198C13.3167 3.88458 13.3754 4.0783 13.3754 4.27647C13.3754 4.54222 13.2699 4.79708 13.082 4.98498C12.894 5.17289 12.6392 5.27846 12.3734 5.27846Z" fill="white"/>
</svg>
