<svg width="15" height="17" viewBox="0 0 15 17" fill="none" xmlns="http://www.w3.org/2000/svg">
<path d="M2.36619 5.85006H1.79405C1.59099 5.81424 1.38257 5.81841 1.18121 5.86231C0.979854 5.9062 0.789688 5.98893 0.622056 6.10556C0.5188 6.21795 0.440412 6.34964 0.391729 6.4925C0.343046 6.63537 0.325099 6.78638 0.338996 6.93622V15.9312C0.323685 16.0785 0.340429 16.2273 0.388146 16.368C0.435864 16.5086 0.513496 16.638 0.616033 16.7478C0.73028 16.8373 0.861691 16.904 1.00268 16.9441C1.14368 16.9841 1.29146 16.9967 1.43751 16.9812C1.70491 16.9812 1.93738 16.9567 2.43003 16.9742C2.62237 17.0105 2.82033 17.0085 3.01187 16.9684C3.2034 16.9283 3.38452 16.8509 3.5442 16.7408C3.6464 16.6309 3.72373 16.5014 3.77123 16.3608C3.81873 16.2201 3.83535 16.0714 3.82003 15.9242V6.93622C3.83409 6.78646 3.81634 6.6355 3.76786 6.49263C3.71939 6.34977 3.64122 6.21804 3.53818 6.10556C3.3708 5.98845 3.18065 5.90543 2.97921 5.86151C2.77777 5.8176 2.56923 5.8137 2.36619 5.85006Z" fill="white"/>
<path d="M2.07457 0.936523C1.62098 0.944082 1.18756 1.12563 0.863637 1.44374C0.539713 1.76186 0.349966 2.19231 0.333496 2.64638C0.340473 3.1103 0.524986 3.55384 0.84896 3.88547C1.17293 4.21709 1.61165 4.41151 2.07457 4.42859C2.30642 4.42687 2.53565 4.37939 2.74916 4.28886C2.96267 4.19834 3.15627 4.06655 3.31889 3.90103C3.48151 3.7355 3.60996 3.53949 3.69688 3.32421C3.78381 3.10893 3.82751 2.8786 3.82549 2.64638C3.80919 2.19054 3.61815 1.75851 3.29208 1.44008C2.966 1.12165 2.52996 0.941306 2.07457 0.936523V0.936523Z" fill="white"/>
<path d="M10.8889 5.83343C10.0112 5.77534 9.14207 6.03412 8.44268 6.56177C8.41313 6.40646 8.33979 6.26258 8.23113 6.14673C8.16211 6.07836 8.07957 6.02479 7.98868 5.98939C7.89778 5.95398 7.80049 5.93749 7.70286 5.94095C7.11833 5.91605 6.5328 5.92763 5.94975 5.97563C5.46355 6.07274 5.22746 6.41379 5.22746 7.01611V15.9341C5.21273 16.0799 5.22881 16.2271 5.27469 16.3665C5.32056 16.5058 5.39523 16.6341 5.49394 16.7434C5.64921 16.8522 5.82515 16.9288 6.01115 16.9685C6.19715 17.0082 6.38936 17.0103 6.57619 16.9746C7.09862 16.9549 7.24705 16.9815 7.5369 16.9815C7.6788 16.997 7.82238 16.9845 7.95938 16.9448C8.09638 16.9051 8.22409 16.839 8.33515 16.7503C8.4344 16.6413 8.50957 16.5131 8.55586 16.3737C8.60214 16.2344 8.61853 16.087 8.60396 15.9411V11.1803C8.58047 10.9751 8.60177 10.7674 8.66642 10.5711C8.73107 10.3747 8.83757 10.1944 8.97872 10.0423C9.11987 9.89019 9.29239 9.76981 9.48461 9.68931C9.67683 9.60881 9.88428 9.57006 10.0929 9.57567C10.305 9.56358 10.5171 9.59759 10.7145 9.67531C10.9118 9.75303 11.0895 9.87257 11.2351 10.0255C11.3807 10.1785 11.4907 10.3611 11.5573 10.5606C11.6238 10.7602 11.6454 10.9717 11.6205 11.1803V15.9341C11.6056 16.08 11.6218 16.2274 11.6678 16.3667C11.7139 16.5061 11.789 16.6344 11.8881 16.7434C12.0429 16.8522 12.2185 16.9289 12.4041 16.9686C12.5897 17.0084 12.7816 17.0104 12.968 16.9746C13.1819 16.9665 13.4355 16.9665 13.6459 16.9746C13.8328 17.0101 14.0249 17.0079 14.2109 16.9682C14.3969 16.9285 14.5728 16.852 14.7282 16.7434C14.8269 16.6341 14.9016 16.5058 14.9474 16.3665C14.9933 16.2271 15.0094 16.0799 14.9946 15.9341V9.84388C15.0224 9.3056 14.9349 8.7676 14.7377 8.26516C14.5405 7.76271 14.2381 7.3072 13.8504 6.92849C13.4627 6.54978 12.9984 6.25645 12.488 6.06772C11.9776 5.879 11.4326 5.79916 10.8889 5.83343Z" fill="white"/>
</svg>
