<svg width="135" height="22" viewBox="0 0 135 22" fill="none" xmlns="http://www.w3.org/2000/svg">
<path d="M52.4461 1.58581C50.4781 0.528604 48.1523 0 45.4686 0C42.785 0 40.4336 0.528604 38.4401 1.58581C36.4465 2.64302 34.913 4.0778 33.814 5.9405C32.715 7.77803 32.1782 9.89245 32.1782 12.2334V18.9542C32.1782 20.6407 33.5584 22 35.2708 22H35.3219C37.0343 22 38.4145 20.6407 38.4145 18.9542V12.2838C38.4145 10.8993 38.7212 9.6659 39.3602 8.6087C39.9991 7.55149 40.8426 6.72082 41.916 6.14188C42.9895 5.56293 44.1396 5.26087 45.3664 5.26087C46.6443 5.26087 47.7945 5.56293 48.8679 6.14188C49.9414 6.72082 50.8104 7.55149 51.4493 8.6087C52.1139 9.6659 52.4206 10.8993 52.4206 12.2838V18.9542C52.4206 20.6407 53.8007 22 55.5131 22C57.2256 22 58.6057 20.6407 58.6057 18.9542V12.2334C58.6057 9.86728 58.069 7.77803 56.97 5.9405C55.9732 4.0778 54.4397 2.64302 52.4461 1.58581Z" fill="white"/>
<path d="M20.2679 1.58581C18.2999 0.528604 15.9741 0 13.2904 0C10.6068 0 8.2554 0.528604 6.26183 1.58581C4.26827 2.64302 2.73476 4.0778 1.63574 5.9405C0.536729 7.75286 0 9.86728 0 12.2334V18.9542C0 20.6407 1.38016 22 3.09258 22H3.1437C4.85612 22 6.23627 20.6407 6.23627 18.9542V17.746H20.2679V18.9542C20.2679 20.6407 21.6481 22 23.3605 22C25.0729 22 26.453 20.6407 26.453 18.9542V12.2334C26.453 9.86728 25.9163 7.77803 24.8173 5.9405C23.795 4.0778 22.2615 2.64302 20.2679 1.58581ZM20.2935 12.5103H6.26183V12.2838C6.26183 10.8993 6.56853 9.6659 7.2075 8.6087C7.84646 7.55149 8.68989 6.72082 9.76335 6.14188C10.8368 5.56293 11.9869 5.26087 13.2137 5.26087C14.4917 5.26087 15.6418 5.56293 16.7153 6.14188C17.7887 6.72082 18.6577 7.55149 19.2967 8.6087C19.9612 9.6659 20.2679 10.8993 20.2679 12.2838V12.5103H20.2935Z" fill="white"/>
<path d="M84.6499 1.58581C82.6563 0.528604 80.3305 0 77.6469 0C74.9632 0 72.6118 0.528604 70.6183 1.58581C68.6247 2.64302 67.0912 4.0778 65.9922 5.9405C64.8932 7.77803 64.3564 9.89245 64.3564 12.2334V18.9542C64.3564 20.6407 65.7366 22 67.449 22H67.5001C69.2126 22 70.5927 20.6407 70.5927 18.9542V12.2838C70.5927 10.8993 70.8994 9.6659 71.5384 8.6087C72.1773 7.55149 73.0208 6.72082 74.0942 6.14188C75.1677 5.56293 76.3178 5.26087 77.5446 5.26087C78.8226 5.26087 79.9727 5.56293 81.0461 6.14188C82.1196 6.72082 82.9886 7.55149 83.6276 8.6087C84.2921 9.6659 84.5988 10.8993 84.5988 12.2838V18.9542C84.5988 20.6407 85.9789 22 87.6914 22C89.4038 22 90.7839 20.6407 90.7839 18.9542V12.2334C90.7839 9.86728 90.2472 7.77803 89.1482 5.9405C88.1514 4.0778 86.6179 2.64302 84.6499 1.58581Z" fill="white"/>
<path d="M116.828 1.58581C114.835 0.528604 112.509 0 109.825 0C107.141 0 104.79 0.528604 102.796 1.58581C100.803 2.64302 99.2694 4.0778 98.1704 5.9405C97.0714 7.77803 96.5347 9.89245 96.5347 12.2334V18.9542C96.5347 20.6407 97.9148 22 99.6272 22H99.6784C101.391 22 102.771 20.6407 102.771 18.9542V17.746H116.803V18.9542C116.803 20.6407 118.183 22 119.895 22C121.608 22 122.988 20.6407 122.988 18.9542V12.2334C122.988 9.86728 122.451 7.77803 121.352 5.9405C120.33 4.0778 118.796 2.64302 116.828 1.58581ZM116.854 12.5103H102.822V12.2838C102.822 10.8993 103.129 9.6659 103.768 8.6087C104.407 7.55149 105.25 6.72082 106.324 6.14188C107.397 5.56293 108.547 5.26087 109.774 5.26087C111.052 5.26087 112.202 5.56293 113.275 6.14188C114.349 6.72082 115.218 7.55149 115.857 8.6087C116.521 9.6659 116.828 10.8993 116.828 12.2838V12.5103H116.854Z" fill="white"/>
<path d="M126.719 0.855835H125.288V0H129.172V0.855835H127.741V4.40503H126.693V0.855835H126.719Z" fill="white"/>
<path d="M129.709 0H131.14L132.316 3.12128H132.367L133.543 0H135V4.40503H133.977V1.38444H133.926L132.776 4.40503H131.933L130.782 1.38444H130.731V4.40503H129.709V0Z" fill="white"/>
</svg>
