<svg width="1439" height="1215" viewBox="0 0 1439 1215" fill="none" xmlns="http://www.w3.org/2000/svg">
<path opacity="0.3" d="M168.421 1215H171.374C264.403 1215 339.795 1139.49 339.795 1046.31L339.795 677.794C339.795 600.886 357.022 533.262 391.478 475.088C425.933 416.914 472.201 371.476 530.365 338.938C588.447 306.4 651.041 290.131 717.982 290.131C786.893 290.131 850.471 306.4 908.635 338.938C966.716 371.476 1013.56 416.914 1049 475.088C1084.44 533.262 1102.16 600.886 1102.16 677.794L1102.16 1046.23C1102.16 1139.41 1177.55 1214.92 1270.58 1214.92C1363.61 1214.92 1439 1139.41 1439 1046.23L1439 674.836C1439 544.601 1409.47 428.664 1350.32 327.024C1291.25 225.383 1207.99 145.517 1100.6 87.2611C993.378 29.1692 866.796 0 721.1 0C575.239 0 448.165 29.1692 339.877 87.3433C231.507 145.6 147.747 225.466 88.6813 327.106C29.5331 428.746 0 544.601 0 674.836L0 1046.23C0 1139.49 75.3914 1215 168.421 1215Z" fill="url(#paint0_linear)"/>
<defs>
<linearGradient id="paint0_linear" x1="719.5" y1="0" x2="719.5" y2="1215" gradientUnits="userSpaceOnUse">
<stop stop-color="#B2CEFD"/>
<stop offset="0.255208" stop-color="#D8BBC0"/>
<stop offset="0.5" stop-color="#9E7593"/>
<stop offset="0.755208"/>
</linearGradient>
</defs>
</svg>
